<svg width="48" height="48" viewBox="0 0 48 48" fill="none" xmlns="http://www.w3.org/2000/svg">
<path d="M45.8 24.8L40.8 5.8C40.2 3.6 38.2 2 36 2H12C9.8 2 7.8 3.6 7.2 5.8L2.2 24.8C1 25.6 0 27.2 0 29V41C0 43.8 2.2 46 5 46H43C45.8 46 48 43.8 48 41V29C48 27.2 47 25.6 45.8 24.8ZM9.2 6.2C9.6 5 10.8 4 12 4H36C37.4 4 38.6 5 39 6.2L43.6 24C43.4 24 43.4 24 43.2 24H38.4C36.8 24 35.2 24.8 34.2 26.2L32.6 28.6C32 29.4 31.2 30 30 30H18.2C17.2 30 16.2 29.4 15.6 28.6L14 26.2C13.2 24.8 11.6 24 9.8 24H5C4.8 24 4.8 24 4.6 24L9.2 6.2ZM46 41C46 42.6 44.6 44 43 44H5C3.4 44 2 42.6 2 41V29C2 27.4 3.4 26 5 26H9.8C10.8 26 11.8 26.6 12.4 27.4L14 29.8C15 31.2 16.4 32 18.2 32H29.8C31.4 32 33 31.2 34 29.8L35.6 27.4C36.2 26.6 37 26 38.2 26H43C44.6 26 46 27.4 46 29V41Z" fill="white" fill-opacity="0.76"/>
<path d="M11 40H7C6.4 40 6 39.6 6 39V37C6 36.4 5.6 36 5 36C4.4 36 4 36.4 4 37V39C4 40.6 5.4 42 7 42H11C11.6 42 12 41.6 12 41C12 40.4 11.6 40 11 40Z" fill="white" fill-opacity="0.76"/>
<path d="M5 34C5.55228 34 6 33.5523 6 33C6 32.4477 5.55228 32 5 32C4.44772 32 4 32.4477 4 33C4 33.5523 4.44772 34 5 34Z" fill="white" fill-opacity="0.76"/>
</svg>
