<svg width="112" height="33" viewBox="0 0 112 33" fill="none" xmlns="http://www.w3.org/2000/svg">
<path d="M25.1613 27.3892L28.1354 28.8471C29.0103 29.276 30.0702 28.8954 30.4084 27.9817C31.2777 25.633 31.9573 22.8511 32.1914 19.9892C32.4653 16.6405 32.1268 13.2166 30.8014 10.2538L30.7995 10.2546C30.7406 10.1269 30.6807 9.99964 30.6199 9.87275C30.1639 8.99517 29.3097 7.91883 28.0518 7.20666C26.6339 6.40393 24.6642 6.04063 22.0795 7.01188C21.5312 7.21792 20.9729 7.48419 20.4131 7.80181C21.1162 9.00189 21.62 10.6204 21.66 12.7546C21.6962 14.6835 21.3842 16.5101 20.9063 18.1375L25.4365 19.8247C26.5067 20.2234 27.2091 21.2825 26.996 22.4045C26.7391 23.7574 26.3079 25.0744 25.7157 26.3258C25.548 26.6802 25.3636 27.036 25.1613 27.3892Z" fill="white"/>
<path d="M9.80396 26.1106C10.1908 25.9938 10.5993 25.8248 11.028 25.5899C12.8437 24.5947 14.2169 22.9697 15.193 21.3757C15.8259 20.3422 16.3019 19.3054 16.6291 18.4296C16.7765 18.035 17.2128 17.8205 17.6075 17.9675L24.9394 20.6983C25.6773 20.9732 26.1424 21.7157 25.9767 22.4855C25.7577 23.5025 25.3887 24.6989 24.8193 25.9022C23.8868 27.8728 22.4338 29.8278 20.2595 31.0635C18.463 32.0846 16.6256 32.6113 14.908 32.6905C13.0365 32.3728 11.8088 31.558 11.0267 30.4698C10.1985 29.3176 9.83033 27.8035 9.80396 26.1106Z" fill="white"/>
<path d="M14.3472 0.45454C18.9711 -0.0882634 22.4068 0.937957 25.0147 2.78517C26.4004 3.76667 27.564 4.98836 28.551 6.3506L28.5403 6.34458C26.8571 5.39159 24.5798 5.01391 21.7307 6.08448C17.906 7.52167 13.7828 11.5716 11.5876 15.7017C10.1638 18.3805 8.75965 22.4882 8.81273 26.1137C8.83934 27.9309 9.23291 29.6728 10.2219 31.0488C10.5662 31.5278 10.9779 31.9558 11.462 32.3241C7.93985 31.4451 3.50808 28.9978 1.11971 23.3567C-0.96456 18.4339 0.0264568 12.9845 2.72689 8.60468C5.43146 4.21814 9.79903 0.988462 14.3472 0.45454Z" fill="white"/>
<path d="M53.9678 10.0242C54.015 9.86378 54.1622 9.75361 54.3294 9.75361H56.9465C57.1546 9.75361 57.3234 9.92239 57.3234 10.1306V25.6066C57.3234 25.8148 57.1546 25.9836 56.9465 25.9836H54.1871C54.0161 25.9836 53.8666 25.8685 53.8227 25.7033L53.5064 24.5108C52.1238 25.7431 50.3205 26.4645 48.2467 26.4645C43.3777 26.4645 39.741 22.7676 39.741 17.8686C39.741 12.9696 43.3777 9.30278 48.2467 9.30278C50.3506 9.30278 52.1839 10.0542 53.5965 11.2864L53.9678 10.0242ZM48.6073 22.3168C51.1621 22.3168 53.0255 20.4233 53.0255 17.8686C53.0255 15.3139 51.1621 13.4204 48.6073 13.4204C46.0526 13.4204 44.1892 15.3139 44.1892 17.8686C44.1892 20.3933 46.0526 22.3168 48.6073 22.3168Z" fill="white"/>
<path d="M71.5231 10.0032C71.5768 9.85347 71.7188 9.75361 71.8779 9.75361H75.5962C75.8624 9.75361 76.0447 10.022 75.9466 10.2695L69.8136 25.7455C69.7566 25.8892 69.6177 25.9836 69.4631 25.9836H65.9152C65.7619 25.9836 65.6239 25.8908 65.5661 25.7488L59.261 10.2728C59.16 10.0249 59.3424 9.75361 59.6101 9.75361H63.4744C63.6328 9.75361 63.7743 9.85263 63.8285 10.0014L67.7055 20.6337L71.5231 10.0032Z" fill="white"/>
<path d="M90.5613 9.75361H93.4603C93.6685 9.75361 93.8373 9.92239 93.8373 10.1306V25.6066C93.8373 25.8148 93.6685 25.9836 93.4603 25.9836H90.701C90.53 25.9836 90.3805 25.8685 90.3366 25.7033L90.0203 24.5108C88.6377 25.7431 86.8344 26.4645 84.7606 26.4645C79.8916 26.4645 76.2549 22.7676 76.2549 17.8686C76.2549 12.9696 79.8916 9.30278 84.7606 9.30278C86.8644 9.30278 88.6978 10.0542 90.1104 11.2864L90.5613 9.75361ZM85.1212 22.3168C87.6759 22.3168 89.5394 20.4233 89.5394 17.8686C89.5394 15.3139 87.6759 13.4204 85.1212 13.4204C82.5665 13.4204 80.7031 15.3139 80.7031 17.8686C80.7031 20.3933 82.5665 22.3168 85.1212 22.3168Z" fill="white"/>
<path d="M99.6374 8.16369C98.4663 8.16369 97.517 7.21435 97.517 6.04329C97.517 4.87222 98.4663 3.92289 99.6374 3.92289H99.7546C100.926 3.92289 101.875 4.87222 101.875 6.04329C101.875 7.21435 100.926 8.16369 99.7546 8.16369H99.6374ZM97.8639 25.9836C97.6557 25.9836 97.4869 25.8148 97.4869 25.6066V10.1306C97.4869 9.92239 97.6557 9.75361 97.8639 9.75361H101.498C101.706 9.75361 101.875 9.92239 101.875 10.1306V25.6066C101.875 25.8148 101.706 25.9836 101.498 25.9836H97.8639Z" fill="white"/>
<path d="M109.874 20.6538C109.874 21.0363 109.953 21.3062 110.11 21.4637C110.29 21.5987 110.571 21.6662 110.954 21.6662C111.144 21.6662 111.322 21.6662 111.581 21.6662C111.841 21.6662 112 21.8987 112 22.1116V25.4802L112 25.4956C112 25.7411 111.812 25.959 111.513 25.959C110.945 25.959 110.474 25.9836 109.874 25.9836L109.063 25.9835C107.916 25.9835 107.027 25.6798 106.397 25.0723C105.789 24.4648 105.486 23.3849 105.486 21.8324V4.29986C105.486 4.09166 105.654 3.92289 105.863 3.92289L109.497 3.92286C109.705 3.92285 109.874 4.09163 109.874 4.29983V20.6538Z" fill="white"/>
</svg>
