<svg width="298" height="47" viewBox="0 0 298 47" fill="none" xmlns="http://www.w3.org/2000/svg">
<path d="M32.8941 36.7915L37.8496 39.0467C40.8015 40.39 44.3242 39.1525 45.3535 36.0769C47.6805 29.124 48.5904 20.7143 45.4825 13.9796C41.9523 6.32985 33.2219 4.25167 30.1311 4.68641L24.4609 7.63498C26.6068 8.01298 30.9339 10.5835 31.0756 17.8415C31.1381 21.0392 30.4539 24.0315 29.5089 26.5662C28.1147 30.306 29.2613 35.1383 32.8941 36.7915Z" fill="#2B80D7"/>
<mask id="mask0_170_367" style="mask-type:alpha" maskUnits="userSpaceOnUse" x="24" y="4" width="24" height="36">
<path d="M32.8941 36.7925L37.8496 39.0476C40.8015 40.391 44.3242 39.1534 45.3535 36.0779C47.6805 29.125 48.5904 20.7153 45.4825 13.9806C41.9523 6.33082 33.2219 4.25264 30.1311 4.68738L24.4609 7.63595C26.6068 8.01396 30.9339 10.5845 31.0756 17.8425C31.1381 21.0402 30.4539 24.0325 29.5089 26.5671C28.1147 30.3069 29.2613 35.1393 32.8941 36.7925Z" fill="#DEA00D"/>
</mask>
<g mask="url(#mask0_170_367)">
<g filter="url(#filter0_f_170_367)">
<path d="M32.4341 36.0382C39.9596 30.0528 49.4473 9.67776 44.4753 5.55512C42.5937 3.99492 25.4202 4.36397 23.8859 3.19849L25.1364 4.98559C25.1364 4.98559 30.1643 11.0315 29.8352 20.5256C29.6331 26.3563 27.4508 32.384 26.0949 35.3307C25.8732 35.8124 15.7993 31.0403 15.6101 31.4104C15.0719 32.4629 24.9509 37.1609 24.9509 37.1609L30.4698 36.7553C31.1827 36.7029 31.8746 36.4832 32.4341 36.0382Z" fill="url(#paint0_linear_170_367)"/>
</g>
<g filter="url(#filter1_f_170_367)">
<path d="M45.064 41.3571C52.05 35.2721 58.0232 20.4535 53.0914 11.9831C51.8782 9.8995 42.7943 3.93721 41.26 2.77173L40.7831 8.71065C40.7831 8.71065 46.3898 13.8965 46.06 23.4087C45.8789 28.6356 44.7482 32.9921 43.7663 35.8565C43.0268 38.0136 40.6512 38.9421 38.5367 38.0884C35.6489 36.9223 32.1597 35.4312 32.33 35.0982C31.7919 36.1507 41.5797 41.6589 41.5797 41.6589C42.717 42.2473 44.0984 42.1981 45.064 41.3571Z" fill="url(#paint1_linear_170_367)"/>
</g>
<g opacity="0.8" filter="url(#filter2_f_170_367)">
<rect width="18.7231" height="15.1659" rx="7.58296" transform="matrix(0.95363 0.300983 -0.323936 0.946079 25.373 21.8718)" fill="#13497E"/>
</g>
<g opacity="0.7" filter="url(#filter3_f_170_367)">
<path d="M27.7648 30.0321C32.9693 25.3563 33.5356 13.53 28.5857 8.81351C27.2386 7.5299 25.2281 6.15195 23.9315 5.29272L24.9883 6.61022C24.9883 6.61022 29.2372 11.0674 28.9591 18.0667C28.7883 22.3652 26.9442 26.809 25.7983 28.9814C25.611 29.3365 17.0978 25.8184 16.9378 26.0913C16.4831 26.8672 24.8316 30.3306 24.8316 30.3306C25.8088 30.7717 26.9672 30.7486 27.7648 30.0321Z" fill="#2B80D7"/>
</g>
</g>
<path d="M34.7103 27.4485L27.0199 24.7764C25.3724 24.204 23.5891 25.1582 22.8786 26.7511C21.6097 29.5961 19.342 33.0751 15.7151 34.5949C9.54096 37.1822 7.50956 31.3938 10.2263 38.7085C12.9431 46.0232 21.9202 48.1212 30.1295 43.6417C34.5252 41.2431 36.926 37.0004 38.1041 33.4365C38.9547 30.8631 37.2706 28.3381 34.7103 27.4485Z" fill="url(#paint2_linear_170_367)"/>
<mask id="mask1_170_367" style="mask-type:alpha" maskUnits="userSpaceOnUse" x="9" y="24" width="30" height="22">
<path d="M34.7103 27.45L27.0199 24.7779C25.3724 24.2054 23.5891 25.1597 22.8786 26.7525C21.6097 29.5975 19.342 33.0766 15.7151 34.5964C9.54096 37.1836 7.50956 31.3953 10.2263 38.71C12.9431 46.0247 21.9202 48.1227 30.1295 43.6432C34.5252 41.2446 36.926 37.0019 38.1041 33.438C38.9547 30.8646 37.2706 28.3396 34.7103 27.45Z" fill="url(#paint3_radial_170_367)"/>
</mask>
<g mask="url(#mask1_170_367)">
<g filter="url(#filter4_f_170_367)">
<path d="M17.3077 47.9514C29.2925 47.9514 34.7862 28.6186 34.2768 22.8976C34.1962 21.9929 33.4362 21.4253 32.5665 21.1634L9.65772 14.2646L23.3399 19.6818C24.0054 19.9453 24.3891 20.6392 24.2111 21.3325C23.664 23.463 22.2278 27.9727 19.2971 31.0091C15.3435 35.1054 7.17764 36.0245 3.80919 35.2607C2.01546 35.258 1.00293 34.6688 1.00293 34.6688C5.08196 37.2133 10.9398 47.9514 17.3077 47.9514Z" fill="url(#paint4_linear_170_367)"/>
</g>
<g opacity="0.4" filter="url(#filter5_f_170_367)">
<path d="M18.7899 33.8754C23.3891 30.8838 26.9603 20.5579 27.0461 15.6689C27.0706 14.2758 25.8359 13.4687 24.4438 13.409L12.0969 12.8794L23.5226 18.2721C24.1231 18.5555 24.4641 19.1986 24.3265 19.8482C23.8841 21.935 22.6804 26.5395 20.1831 29.6239C16.8665 33.7202 10.0164 34.6392 7.19072 33.8754C5.68602 33.8728 4.90918 34.4577 4.90918 34.4577C8.33096 37.0022 14.1457 36.8963 18.7899 33.8754Z" fill="#3EBADD"/>
</g>
<g filter="url(#filter6_f_170_367)">
<path d="M30.539 44.7412C36.1977 41.6534 41.2399 30.2035 41.2575 25.3797C41.2617 24.214 40.2019 23.5544 39.0439 23.4202L23.7154 21.6443L23.3365 23.9943L34.2716 28.0937C36.0475 28.7594 37.1988 30.4839 36.6445 32.2977C36.0347 34.2931 34.7909 37.0254 32.2541 39.7969C27.3383 45.1675 20.2315 44.9131 16.8631 44.1493C15.0694 44.1466 14.6279 44.1493 14.6279 44.1493C18.4663 46.768 25.0028 47.7621 30.539 44.7412Z" fill="url(#paint5_linear_170_367)"/>
</g>
</g>
<path d="M17.9644 22.2058C13.9483 29.4602 10.0621 44.3154 22.3466 45.9599C17.5425 46.3146 6.62412 43.9458 1.66309 32.6959C-4.5382 18.6335 7.62882 1.73601 21.2126 0.205021C34.4923 -1.2917 41.3373 5.66567 45.2791 13.554C45.3803 13.7416 45.469 13.9235 45.5454 14.0972C45.4581 13.9158 45.3694 13.7347 45.2791 13.554C43.7623 10.7417 39.4471 6.64087 32.1388 9.27747C26.8521 11.1847 21.0541 16.6247 17.9644 22.2058Z" fill="#2CBBF9"/>
<mask id="mask2_170_367" style="mask-type:alpha" maskUnits="userSpaceOnUse" x="0" y="0" width="46" height="46">
<path d="M17.9644 22.2051C13.9483 29.4595 10.0621 44.3147 22.3466 45.9591C17.5425 46.3139 6.62412 43.9451 1.66309 32.6952C-4.5382 18.6328 7.62882 1.73527 21.2126 0.204288C34.4923 -1.29243 41.3373 5.66494 45.2791 13.5533C45.3803 13.7409 45.469 13.9228 45.5454 14.0965C45.4581 13.915 45.3694 13.7339 45.2791 13.5533C43.7623 10.741 39.4471 6.64014 32.1388 9.27674C26.8521 11.184 21.0541 16.6239 17.9644 22.2051Z" fill="#00CCC0"/>
</mask>
<g mask="url(#mask2_170_367)">
<g filter="url(#filter7_f_170_367)">
<path d="M-10.336 32.3828C-5.37498 43.6327 17.1898 47.0016 21.9939 46.6469C22.235 44.4645 15.342 39.7262 15.5825 34.4539C15.5825 34.4539 6.79273 34.7241 5.45058 22.2043C4.10843 9.68455 11.5883 3.38379 11.5883 3.38379C2.67058 7.60434 -13.0198 26.2969 -10.336 32.3828Z" fill="url(#paint6_linear_170_367)"/>
<path d="M45.545 14.0978C68.7012 -3.84633 29.5271 -7.98866 15.9433 -6.45767C10.2886 -5.82034 -4.58646 8.53334 1.2689 14.7103C1.2689 14.7103 7.34103 8.25212 15.9433 7.07226C24.5456 5.8924 28.529 11.846 28.529 11.846C29.5771 11.2288 32.333 11.0588 33.3661 10.6861C41.1619 7.87361 45.164 13.3268 45.545 14.0978Z" fill="url(#paint7_linear_170_367)"/>
</g>
<g filter="url(#filter8_f_170_367)">
<path d="M2.22931 34.1445C-11.596 29.9528 -4.9419 1.48478 8.92892 -2.5896C21.4092 -6.25551 22.4376 -0.495342 24.633 -0.1444C24.918 -0.152853 25.0725 -0.147432 25.0725 -0.147432C24.919 -0.121635 24.7736 -0.121923 24.633 -0.1444C22.9838 -0.0954838 16.9646 0.418013 11.2243 5.13489C2.59113 12.229 -0.884836 23.5704 2.22931 34.1445Z" fill="#56E5FF"/>
</g>
<g filter="url(#filter9_f_170_367)">
<path d="M24.5843 45.9363C20.7424 50.0883 5.01658 45.0395 0.0555525 33.7896C-0.837632 31.7642 0.133507 25.5503 0.0689735 23.1353C0.0577299 22.9541 0.055553 22.8572 0.055553 22.8572C0.061913 22.9431 0.0663192 23.036 0.0689735 23.1353C0.152423 24.48 0.735325 30.4637 4.63458 35.8712C9.05919 42.0073 18.1476 44.4106 18.1476 44.4106C19.3335 45.2205 22.6835 45.6818 24.5843 45.9363Z" fill="#FDC7C7"/>
</g>
<mask id="mask3_170_367" style="mask-type:alpha" maskUnits="userSpaceOnUse" x="-7" y="21" width="31" height="30">
<rect width="30.8864" height="10.8584" transform="matrix(0.710772 0.703422 -0.731755 0.681568 1.19043 21.3228)" fill="url(#paint8_linear_170_367)"/>
</mask>
<g mask="url(#mask3_170_367)">
<path d="M24.5853 45.9358C20.7434 50.0879 5.01756 45.0391 0.056529 33.7892C-0.836655 31.7637 0.134483 25.5498 0.06995 23.1348C0.0587065 22.9537 0.0565296 22.8567 0.0565296 22.8567C0.0628896 22.9426 0.0672958 23.0355 0.06995 23.1348C0.1534 24.4795 0.736301 30.4632 4.63555 35.8707C9.06017 42.0068 18.1486 44.4101 18.1486 44.4101C19.3345 45.22 22.6845 45.6813 24.5853 45.9358Z" fill="#FDC7C7"/>
</g>
<g filter="url(#filter10_f_170_367)">
<path d="M46.5261 14.6884C47.5378 7.63023 34.4209 -3.3076 20.8371 -1.77661C15.9225 -1.2227 11.568 3.32345 7.82715 7.03825C7.82715 7.03825 16.3169 -0.20495 26.6523 1.18848C36.9876 2.58192 41.6056 9.92912 41.6056 9.92912C43.7638 11.1408 44.7485 14.8643 46.5261 14.6884Z" fill="#EFC7FD"/>
</g>
<mask id="mask4_170_367" style="mask-type:alpha" maskUnits="userSpaceOnUse" x="6" y="-4" width="40" height="19">
<rect width="37.4542" height="12.0969" transform="matrix(0.989966 0.141307 -0.153027 0.988222 8.08496 -3.11938)" fill="url(#paint9_linear_170_367)"/>
</mask>
<g mask="url(#mask4_170_367)">
<path d="M46.5271 14.6901C47.5388 7.63194 34.4219 -3.30589 20.8381 -1.7749C15.9235 -1.221 11.569 3.32516 7.82812 7.03996C7.82812 7.03996 16.3179 -0.203241 26.6533 1.19019C36.9886 2.58363 41.6065 9.93082 41.6065 9.93082C43.7647 11.1425 44.7494 14.866 46.5271 14.6901Z" fill="#EFC7FD"/>
</g>
<g filter="url(#filter11_f_170_367)">
<path d="M30.8036 7.50398C16.8886 11.7169 4.56244 36.3068 16.5394 45.5307C28.5165 54.7545 42.518 37.2331 49.5622 23.0417C46.0769 13.5045 44.7187 3.29102 30.8036 7.50398Z" fill="url(#paint10_linear_170_367)"/>
</g>
<mask id="mask5_170_367" style="mask-type:alpha" maskUnits="userSpaceOnUse" x="-7" y="-7" width="61" height="61">
<rect width="40.1382" height="46.9866" transform="matrix(0.864648 0.502378 -0.533232 0.845969 18.6318 -6.73975)" fill="url(#paint11_linear_170_367)"/>
</mask>
<g mask="url(#mask5_170_367)">
<path d="M30.8027 7.50349C16.8876 11.7165 4.56146 36.3063 16.5385 45.5302C28.5155 54.754 42.517 37.2327 49.5612 23.0413C46.0759 13.504 44.7177 3.29053 30.8027 7.50349Z" fill="url(#paint12_linear_170_367)"/>
</g>
</g>
<path d="M32.8941 36.7915L37.8496 39.0467C40.8015 40.39 44.3242 39.1525 45.3535 36.0769C47.6805 29.124 48.5904 20.7143 45.4825 13.9796C41.9523 6.32985 33.2219 4.25167 30.1311 4.68641L24.4609 7.63498C26.6068 8.01298 30.9339 10.5835 31.0756 17.8415C31.1381 21.0392 30.4539 24.0315 29.5089 26.5662C28.1147 30.306 29.2613 35.1383 32.8941 36.7915Z" fill="#2B80D7"/>
<mask id="mask6_170_367" style="mask-type:alpha" maskUnits="userSpaceOnUse" x="24" y="4" width="24" height="36">
<path d="M32.8941 36.7925L37.8496 39.0476C40.8015 40.391 44.3242 39.1534 45.3535 36.0779C47.6805 29.125 48.5904 20.7153 45.4825 13.9806C41.9523 6.33082 33.2219 4.25264 30.1311 4.68738L24.4609 7.63595C26.6068 8.01396 30.9339 10.5845 31.0756 17.8425C31.1381 21.0402 30.4539 24.0325 29.5089 26.5671C28.1147 30.3069 29.2613 35.1393 32.8941 36.7925Z" fill="#DEA00D"/>
</mask>
<g mask="url(#mask6_170_367)">
<g filter="url(#filter12_f_170_367)">
<path d="M32.4341 36.0382C39.9596 30.0528 49.4473 9.67776 44.4753 5.55512C42.5937 3.99492 25.4202 4.36397 23.8859 3.19849L25.1364 4.98559C25.1364 4.98559 30.1643 11.0315 29.8352 20.5256C29.6331 26.3563 27.4508 32.384 26.0949 35.3307C25.8732 35.8124 15.7993 31.0403 15.6101 31.4104C15.0719 32.4629 24.9509 37.1609 24.9509 37.1609L30.4698 36.7553C31.1827 36.7029 31.8746 36.4832 32.4341 36.0382Z" fill="url(#paint13_linear_170_367)"/>
</g>
<g filter="url(#filter13_f_170_367)">
<path d="M45.064 41.3571C52.05 35.2721 58.0232 20.4535 53.0914 11.9831C51.8782 9.8995 42.7943 3.93721 41.26 2.77173L40.7831 8.71065C40.7831 8.71065 46.3898 13.8965 46.06 23.4087C45.8789 28.6356 44.7482 32.9921 43.7663 35.8565C43.0268 38.0136 40.6512 38.9421 38.5367 38.0884C35.6489 36.9223 32.1597 35.4312 32.33 35.0982C31.7919 36.1507 41.5797 41.6589 41.5797 41.6589C42.717 42.2473 44.0984 42.1981 45.064 41.3571Z" fill="url(#paint14_linear_170_367)"/>
</g>
<g opacity="0.8" filter="url(#filter14_f_170_367)">
<rect width="18.7231" height="15.1659" rx="7.58296" transform="matrix(0.95363 0.300983 -0.323936 0.946079 25.373 21.8718)" fill="#13497E"/>
</g>
<g opacity="0.7" filter="url(#filter15_f_170_367)">
<path d="M27.7648 30.0321C32.9693 25.3563 33.5356 13.53 28.5857 8.81351C27.2386 7.5299 25.2281 6.15195 23.9315 5.29272L24.9883 6.61022C24.9883 6.61022 29.2372 11.0674 28.9591 18.0667C28.7883 22.3652 26.9442 26.809 25.7983 28.9814C25.611 29.3365 17.0978 25.8184 16.9378 26.0913C16.4831 26.8672 24.8316 30.3306 24.8316 30.3306C25.8088 30.7717 26.9672 30.7486 27.7648 30.0321Z" fill="#2B80D7"/>
</g>
</g>
<path d="M34.7103 27.4485L27.0199 24.7764C25.3724 24.204 23.5891 25.1582 22.8786 26.7511C21.6097 29.5961 19.342 33.0751 15.7151 34.5949C9.54096 37.1822 7.50956 31.3938 10.2263 38.7085C12.9431 46.0232 21.9202 48.1212 30.1295 43.6417C34.5252 41.2431 36.926 37.0004 38.1041 33.4365C38.9547 30.8631 37.2706 28.3381 34.7103 27.4485Z" fill="url(#paint15_linear_170_367)"/>
<mask id="mask7_170_367" style="mask-type:alpha" maskUnits="userSpaceOnUse" x="9" y="24" width="30" height="22">
<path d="M34.7103 27.45L27.0199 24.7779C25.3724 24.2054 23.5891 25.1597 22.8786 26.7525C21.6097 29.5975 19.342 33.0766 15.7151 34.5964C9.54096 37.1836 7.50956 31.3953 10.2263 38.71C12.9431 46.0247 21.9202 48.1227 30.1295 43.6432C34.5252 41.2446 36.926 37.0019 38.1041 33.438C38.9547 30.8646 37.2706 28.3396 34.7103 27.45Z" fill="url(#paint16_radial_170_367)"/>
</mask>
<g mask="url(#mask7_170_367)">
<g filter="url(#filter16_f_170_367)">
<path d="M17.3077 47.9514C29.2925 47.9514 34.7862 28.6186 34.2768 22.8976C34.1962 21.9929 33.4362 21.4253 32.5665 21.1634L9.65772 14.2646L23.3399 19.6818C24.0054 19.9453 24.3891 20.6392 24.2111 21.3325C23.664 23.463 22.2278 27.9727 19.2971 31.0091C15.3435 35.1054 7.17764 36.0245 3.80919 35.2607C2.01546 35.258 1.00293 34.6688 1.00293 34.6688C5.08196 37.2133 10.9398 47.9514 17.3077 47.9514Z" fill="url(#paint17_linear_170_367)"/>
</g>
<g opacity="0.4" filter="url(#filter17_f_170_367)">
<path d="M18.7899 33.8754C23.3891 30.8838 26.9603 20.5579 27.0461 15.6689C27.0706 14.2758 25.8359 13.4687 24.4438 13.409L12.0969 12.8794L23.5226 18.2721C24.1231 18.5555 24.4641 19.1986 24.3265 19.8482C23.8841 21.935 22.6804 26.5395 20.1831 29.6239C16.8665 33.7202 10.0164 34.6392 7.19072 33.8754C5.68602 33.8728 4.90918 34.4577 4.90918 34.4577C8.33096 37.0022 14.1457 36.8963 18.7899 33.8754Z" fill="#3EBADD"/>
</g>
<g filter="url(#filter18_f_170_367)">
<path d="M30.539 44.7412C36.1977 41.6534 41.2399 30.2035 41.2575 25.3797C41.2617 24.214 40.2019 23.5544 39.0439 23.4202L23.7154 21.6443L23.3365 23.9943L34.2716 28.0937C36.0475 28.7594 37.1988 30.4839 36.6445 32.2977C36.0347 34.2931 34.7909 37.0254 32.2541 39.7969C27.3383 45.1675 20.2315 44.9131 16.8631 44.1493C15.0694 44.1466 14.6279 44.1493 14.6279 44.1493C18.4663 46.768 25.0028 47.7621 30.539 44.7412Z" fill="url(#paint18_linear_170_367)"/>
</g>
</g>
<path d="M17.9644 22.2058C13.9483 29.4602 10.0621 44.3154 22.3466 45.9599C17.5425 46.3146 6.62412 43.9458 1.66309 32.6959C-4.5382 18.6335 7.62882 1.73601 21.2126 0.205021C34.4923 -1.2917 41.3373 5.66567 45.2791 13.554C45.3803 13.7416 45.469 13.9235 45.5454 14.0972C45.4581 13.9158 45.3694 13.7347 45.2791 13.554C43.7623 10.7417 39.4471 6.64087 32.1388 9.27747C26.8521 11.1847 21.0541 16.6247 17.9644 22.2058Z" fill="#2CBBF9"/>
<mask id="mask8_170_367" style="mask-type:alpha" maskUnits="userSpaceOnUse" x="0" y="0" width="46" height="46">
<path d="M17.9644 22.2051C13.9483 29.4595 10.0621 44.3147 22.3466 45.9591C17.5425 46.3139 6.62412 43.9451 1.66309 32.6952C-4.5382 18.6328 7.62882 1.73527 21.2126 0.204288C34.4923 -1.29243 41.3373 5.66494 45.2791 13.5533C45.3803 13.7409 45.469 13.9228 45.5454 14.0965C45.4581 13.915 45.3694 13.7339 45.2791 13.5533C43.7623 10.741 39.4471 6.64014 32.1388 9.27674C26.8521 11.184 21.0541 16.6239 17.9644 22.2051Z" fill="#00CCC0"/>
</mask>
<g mask="url(#mask8_170_367)">
<g filter="url(#filter19_f_170_367)">
<path d="M-10.336 32.3828C-5.37498 43.6327 17.1898 47.0016 21.9939 46.6469C22.235 44.4645 15.342 39.7262 15.5825 34.4539C15.5825 34.4539 6.79273 34.7241 5.45058 22.2043C4.10843 9.68455 11.5883 3.38379 11.5883 3.38379C2.67058 7.60434 -13.0198 26.2969 -10.336 32.3828Z" fill="url(#paint19_linear_170_367)"/>
<path d="M45.545 14.0978C68.7012 -3.84633 29.5271 -7.98866 15.9433 -6.45767C10.2886 -5.82034 -4.58646 8.53334 1.2689 14.7103C1.2689 14.7103 7.34103 8.25212 15.9433 7.07226C24.5456 5.8924 28.529 11.846 28.529 11.846C29.5771 11.2288 32.333 11.0588 33.3661 10.6861C41.1619 7.87361 45.164 13.3268 45.545 14.0978Z" fill="url(#paint20_linear_170_367)"/>
</g>
<g filter="url(#filter20_f_170_367)">
<path d="M2.22931 34.1445C-11.596 29.9528 -4.9419 1.48478 8.92892 -2.5896C21.4092 -6.25551 22.4376 -0.495342 24.633 -0.1444C24.918 -0.152853 25.0725 -0.147432 25.0725 -0.147432C24.919 -0.121635 24.7736 -0.121923 24.633 -0.1444C22.9838 -0.0954838 16.9646 0.418013 11.2243 5.13489C2.59113 12.229 -0.884836 23.5704 2.22931 34.1445Z" fill="#56E5FF"/>
</g>
<g filter="url(#filter21_f_170_367)">
<path d="M24.5843 45.9363C20.7424 50.0883 5.01658 45.0395 0.0555525 33.7896C-0.837632 31.7642 0.133507 25.5503 0.0689735 23.1353C0.0577299 22.9541 0.055553 22.8572 0.055553 22.8572C0.061913 22.9431 0.0663192 23.036 0.0689735 23.1353C0.152423 24.48 0.735325 30.4637 4.63458 35.8712C9.05919 42.0073 18.1476 44.4106 18.1476 44.4106C19.3335 45.2205 22.6835 45.6818 24.5843 45.9363Z" fill="#FDC7C7"/>
</g>
<mask id="mask9_170_367" style="mask-type:alpha" maskUnits="userSpaceOnUse" x="-7" y="21" width="31" height="30">
<rect width="30.8864" height="10.8584" transform="matrix(0.710772 0.703422 -0.731755 0.681568 1.19043 21.3228)" fill="url(#paint21_linear_170_367)"/>
</mask>
<g mask="url(#mask9_170_367)">
<path d="M24.5853 45.9358C20.7434 50.0879 5.01756 45.0391 0.056529 33.7892C-0.836655 31.7637 0.134483 25.5498 0.06995 23.1348C0.0587065 22.9537 0.0565296 22.8567 0.0565296 22.8567C0.0628896 22.9426 0.0672958 23.0355 0.06995 23.1348C0.1534 24.4795 0.736301 30.4632 4.63555 35.8707C9.06017 42.0068 18.1486 44.4101 18.1486 44.4101C19.3345 45.22 22.6845 45.6813 24.5853 45.9358Z" fill="#FDC7C7"/>
</g>
<g filter="url(#filter22_f_170_367)">
<path d="M46.5261 14.6884C47.5378 7.63023 34.4209 -3.3076 20.8371 -1.77661C15.9225 -1.2227 11.568 3.32345 7.82715 7.03825C7.82715 7.03825 16.3169 -0.20495 26.6523 1.18848C36.9876 2.58192 41.6056 9.92912 41.6056 9.92912C43.7638 11.1408 44.7485 14.8643 46.5261 14.6884Z" fill="#EFC7FD"/>
</g>
<mask id="mask10_170_367" style="mask-type:alpha" maskUnits="userSpaceOnUse" x="6" y="-4" width="40" height="19">
<rect width="37.4542" height="12.0969" transform="matrix(0.989966 0.141307 -0.153027 0.988222 8.08496 -3.11938)" fill="url(#paint22_linear_170_367)"/>
</mask>
<g mask="url(#mask10_170_367)">
<path d="M46.5271 14.6901C47.5388 7.63194 34.4219 -3.30589 20.8381 -1.7749C15.9235 -1.221 11.569 3.32516 7.82812 7.03996C7.82812 7.03996 16.3179 -0.203241 26.6533 1.19019C36.9886 2.58363 41.6065 9.93082 41.6065 9.93082C43.7647 11.1425 44.7494 14.866 46.5271 14.6901Z" fill="#EFC7FD"/>
</g>
<g filter="url(#filter23_f_170_367)">
<path d="M30.8036 7.50398C16.8886 11.7169 4.56244 36.3068 16.5394 45.5307C28.5165 54.7545 42.518 37.2331 49.5622 23.0417C46.0769 13.5045 44.7187 3.29102 30.8036 7.50398Z" fill="url(#paint23_linear_170_367)"/>
</g>
<mask id="mask11_170_367" style="mask-type:alpha" maskUnits="userSpaceOnUse" x="-7" y="-7" width="61" height="61">
<rect width="40.1382" height="46.9866" transform="matrix(0.864648 0.502378 -0.533232 0.845969 18.6318 -6.73975)" fill="url(#paint24_linear_170_367)"/>
</mask>
<g mask="url(#mask11_170_367)">
<path d="M30.8027 7.50349C16.8876 11.7165 4.56146 36.3063 16.5385 45.5302C28.5155 54.754 42.517 37.2327 49.5612 23.0413C46.0759 13.504 44.7177 3.29053 30.8027 7.50349Z" fill="url(#paint25_linear_170_367)"/>
</g>
</g>
<path d="M77.0177 16.3565C77.3132 15.3919 78.2039 14.7333 79.2127 14.7333H80.1461C81.4139 14.7333 82.4417 15.7611 82.4417 17.0289V35.8714C82.4417 37.1392 81.4139 38.1671 80.1461 38.1671H79.0363C78.004 38.1671 77.0986 37.4779 76.8236 36.4828L76.7014 36.0407C74.6222 37.8199 71.9102 38.8614 68.7915 38.8614C61.4691 38.8614 56 33.5237 56 26.4502C56 19.3766 61.4691 14.0823 68.7915 14.0823C71.9554 14.0823 74.7126 15.1672 76.837 16.9465L77.0177 16.3565ZM69.3339 32.8728C73.1758 32.8728 75.9782 30.1388 75.9782 26.4502C75.9782 22.7615 73.1758 20.0276 69.3339 20.0276C65.4919 20.0276 62.6895 22.7615 62.6895 26.4502C62.6895 30.0954 65.4919 32.8728 69.3339 32.8728Z" fill="#E2EEFE"/>
<path d="M103.373 16.2247C103.709 15.3277 104.566 14.7333 105.523 14.7333H107.325C108.96 14.7333 110.071 16.3936 109.447 17.9048L101.669 36.7473C101.315 37.6065 100.477 38.1671 99.5474 38.1671H96.5011C95.5798 38.1671 94.7477 37.6163 94.3878 36.7681L86.3922 17.9257C85.7498 16.4118 86.8609 14.7333 88.5055 14.7333H90.5049C91.4583 14.7333 92.3125 15.3226 92.651 16.2139L98.055 30.4426L103.373 16.2247Z" fill="#E2EEFE"/>
<path d="M132.427 14.7333H135.058C136.326 14.7333 137.354 15.7611 137.354 17.0289V35.8714C137.354 37.1392 136.326 38.1671 135.058 38.1671H133.949C132.916 38.1671 132.011 37.4779 131.736 36.4828L131.614 36.0407C129.534 37.8199 126.822 38.8614 123.704 38.8614C116.381 38.8614 110.912 33.5237 110.912 26.4502C110.912 19.3766 116.381 14.0823 123.704 14.0823C126.868 14.0823 129.625 15.1672 131.749 16.9465L132.427 14.7333ZM124.246 32.8728C128.088 32.8728 130.89 30.1388 130.89 26.4502C130.89 22.7615 128.088 20.0276 124.246 20.0276C120.404 20.0276 117.602 22.7615 117.602 26.4502C117.602 30.0954 120.404 32.8728 124.246 32.8728Z" fill="#E2EEFE"/>
<path d="M145.949 12.4376C144.258 12.4376 142.888 11.0669 142.888 9.37607C142.888 7.68521 144.258 6.31451 145.949 6.31451H146.38C148.071 6.31451 149.442 7.68521 149.442 9.37607C149.442 11.0669 148.071 12.4376 146.38 12.4376H145.949ZM145.138 38.1671C143.87 38.1671 142.842 37.1392 142.842 35.8714V17.0289C142.842 15.7611 143.87 14.7333 145.138 14.7333H147.146C148.414 14.7333 149.442 15.7611 149.442 17.0289V35.8714C149.442 37.1392 148.414 38.1671 147.146 38.1671H145.138Z" fill="#E2EEFE"/>
<path d="M161.471 30.4716C161.471 31.0238 161.589 31.4136 161.826 31.641C162.097 31.836 162.52 31.9334 163.095 31.9334C163.382 31.9334 163.649 31.9334 164.039 31.9334C164.429 31.9334 164.668 32.2691 164.668 32.5765V37.4403L164.668 37.4626C164.669 37.817 164.386 38.1316 163.936 38.1316C163.082 38.1316 162.373 38.1671 161.471 38.1671L160.251 38.167C158.526 38.167 157.189 37.7284 156.242 36.8513C155.328 35.9742 154.872 34.4149 154.872 32.1734V8.61017C154.872 7.34231 155.899 6.3145 157.167 6.31449L159.175 6.31447C160.443 6.31446 161.471 7.34228 161.471 8.61015V30.4716Z" fill="#E2EEFE"/>
<path d="M177.568 38V10H189.608C190.675 10 191.675 10.2133 192.608 10.64C193.541 11.0667 194.355 11.64 195.048 12.36C195.741 13.08 196.288 13.92 196.688 14.88C197.088 15.8133 197.288 16.8133 197.288 17.88C197.288 18.84 197.115 19.7733 196.768 20.68C196.448 21.5867 195.981 22.4 195.368 23.12C196.301 23.8933 197.035 24.84 197.568 25.96C198.101 27.0533 198.368 28.2533 198.368 29.56C198.368 30.7067 198.155 31.8 197.728 32.84C197.301 33.8533 196.715 34.7467 195.968 35.52C195.221 36.2933 194.355 36.9067 193.368 37.36C192.381 37.7867 191.328 38 190.208 38H177.568ZM189.608 21.2C190.328 21.2 190.981 20.9067 191.568 20.32C192.181 19.7333 192.488 18.9867 192.488 18.08C192.488 17.1467 192.181 16.4 191.568 15.84C190.981 15.2533 190.328 14.96 189.608 14.96H182.768V21.24L189.608 21.2ZM190.208 33C190.661 33 191.075 32.9067 191.448 32.72C191.821 32.5333 192.155 32.28 192.448 31.96C192.741 31.64 192.968 31.2667 193.128 30.84C193.288 30.4133 193.368 29.9733 193.368 29.52C193.368 29.04 193.288 28.5867 193.128 28.16C192.968 27.7333 192.741 27.36 192.448 27.04C192.155 26.72 191.821 26.4667 191.448 26.28C191.075 26.0933 190.661 26 190.208 26H182.768V33H190.208ZM213.248 22.72C212.981 22.64 212.688 22.6 212.368 22.6C210.768 22.6 209.421 23.0533 208.328 23.96C207.235 24.84 206.688 26.12 206.688 27.8V38H201.728V18H206.688V21.6C207.115 20.6667 207.848 19.84 208.888 19.12C209.955 18.3733 211.315 18 212.968 18H213.608L213.248 22.72ZM219.809 13.36C219.089 13.36 218.462 13.1067 217.929 12.6C217.396 12.0933 217.129 11.4667 217.129 10.72C217.129 9.97333 217.396 9.34667 217.929 8.84C218.462 8.30667 219.089 8.04 219.809 8.04C220.529 8.04 221.142 8.30667 221.649 8.84C222.182 9.34667 222.449 9.97333 222.449 10.72C222.449 11.4667 222.182 12.0933 221.649 12.6C221.142 13.1067 220.529 13.36 219.809 13.36ZM217.289 18H222.209V38H217.289V18ZM246.584 38H241.664V35.92C240.971 36.6933 240.144 37.3333 239.184 37.84C238.251 38.32 237.144 38.56 235.864 38.56C234.317 38.56 232.917 38.2933 231.664 37.76C230.437 37.2267 229.384 36.4933 228.504 35.56C227.651 34.6 226.984 33.48 226.504 32.2C226.051 30.92 225.824 29.5333 225.824 28.04C225.824 26.5467 226.051 25.16 226.504 23.88C226.984 22.5733 227.651 21.4533 228.504 20.52C229.384 19.56 230.437 18.8133 231.664 18.28C232.917 17.7467 234.317 17.48 235.864 17.48C237.144 17.48 238.251 17.7333 239.184 18.24C240.144 18.72 240.971 19.3467 241.664 20.12V10H246.584V38ZM235.984 33.92C236.811 33.92 237.571 33.7733 238.264 33.48C238.957 33.1867 239.557 32.7733 240.064 32.24C240.571 31.7067 240.957 31.08 241.224 30.36C241.517 29.64 241.664 28.8533 241.664 28C241.664 27.1467 241.517 26.3733 241.224 25.68C240.957 24.96 240.571 24.3467 240.064 23.84C239.557 23.3067 238.957 22.8933 238.264 22.6C237.571 22.3067 236.811 22.16 235.984 22.16C235.184 22.16 234.464 22.32 233.824 22.64C233.184 22.9333 232.624 23.36 232.144 23.92C231.691 24.4533 231.331 25.08 231.064 25.8C230.824 26.4933 230.704 27.24 230.704 28.04C230.704 28.84 230.824 29.6 231.064 30.32C231.331 31.04 231.691 31.6667 232.144 32.2C232.624 32.7333 233.184 33.16 233.824 33.48C234.464 33.7733 235.184 33.92 235.984 33.92ZM266.172 35.92C265.479 36.6933 264.652 37.3333 263.692 37.84C262.759 38.32 261.652 38.56 260.372 38.56C258.826 38.56 257.426 38.2933 256.172 37.76C254.946 37.2267 253.892 36.4933 253.012 35.56C252.159 34.6 251.492 33.48 251.012 32.2C250.559 30.92 250.332 29.5333 250.332 28.04C250.332 26.5467 250.559 25.16 251.012 23.88C251.492 22.5733 252.159 21.4533 253.012 20.52C253.892 19.56 254.946 18.8133 256.172 18.28C257.426 17.7467 258.826 17.48 260.372 17.48C261.652 17.48 262.759 17.7333 263.692 18.24C264.652 18.72 265.479 19.3467 266.172 20.12V18H271.092V37C271.092 38.44 270.812 39.7467 270.252 40.92C269.692 42.0933 268.919 43.0933 267.932 43.92C266.972 44.7467 265.812 45.3867 264.452 45.84C263.119 46.2933 261.666 46.52 260.092 46.52C258.919 46.52 257.799 46.4 256.732 46.16C255.666 45.92 254.679 45.5867 253.772 45.16C252.866 44.7333 252.066 44.2267 251.372 43.64C250.706 43.0533 250.186 42.4 249.812 41.68L254.052 39.24C254.426 39.96 255.146 40.5867 256.212 41.12C257.279 41.68 258.612 41.96 260.212 41.96C261.066 41.96 261.852 41.84 262.572 41.6C263.292 41.36 263.919 41.0133 264.452 40.56C264.986 40.1333 265.399 39.6133 265.692 39C266.012 38.4133 266.172 37.7467 266.172 37V35.92ZM260.492 33.92C261.319 33.92 262.079 33.7733 262.772 33.48C263.466 33.1867 264.066 32.7733 264.572 32.24C265.079 31.7067 265.466 31.08 265.732 30.36C266.026 29.64 266.172 28.8533 266.172 28C266.172 27.1467 266.026 26.3733 265.732 25.68C265.466 24.96 265.079 24.3467 264.572 23.84C264.066 23.3067 263.466 22.8933 262.772 22.6C262.079 22.3067 261.319 22.16 260.492 22.16C259.692 22.16 258.972 22.32 258.332 22.64C257.692 22.9333 257.132 23.36 256.652 23.92C256.199 24.4533 255.839 25.08 255.572 25.8C255.332 26.4933 255.212 27.24 255.212 28.04C255.212 28.84 255.332 29.6 255.572 30.32C255.839 31.04 256.199 31.6667 256.652 32.2C257.132 32.7333 257.692 33.16 258.332 33.48C258.972 33.7733 259.692 33.92 260.492 33.92ZM285.329 17.48C286.823 17.48 288.183 17.76 289.409 18.32C290.636 18.8533 291.689 19.6 292.569 20.56C293.449 21.52 294.129 22.64 294.609 23.92C295.116 25.2 295.369 26.5733 295.369 28.04C295.369 28.68 295.316 29.2667 295.209 29.8H279.729C280.076 31.16 280.769 32.2533 281.809 33.08C282.876 33.88 284.183 34.28 285.729 34.28C286.716 34.28 287.649 34.08 288.529 33.68C289.436 33.2533 290.116 32.6933 290.569 32L294.369 34.24C293.436 35.6 292.236 36.6533 290.769 37.4C289.303 38.1467 287.596 38.52 285.649 38.52C284.023 38.52 282.529 38.2533 281.169 37.72C279.836 37.1867 278.689 36.4533 277.729 35.52C276.796 34.56 276.063 33.44 275.529 32.16C275.023 30.88 274.769 29.4933 274.769 28C274.769 26.5067 275.023 25.12 275.529 23.84C276.063 22.56 276.783 21.4533 277.689 20.52C278.623 19.5867 279.743 18.8533 281.049 18.32C282.356 17.76 283.783 17.48 285.329 17.48ZM290.689 25.92C290.503 24.6133 289.916 23.6 288.929 22.88C287.943 22.16 286.716 21.8 285.249 21.8C284.476 21.8 283.756 21.92 283.089 22.16C282.423 22.3733 281.836 22.6667 281.329 23.04C280.823 23.4133 280.423 23.8533 280.129 24.36C279.836 24.84 279.676 25.36 279.649 25.92H290.689Z" fill="#3FB5F8"/>
<defs>
<filter id="filter0_f_170_367" x="-6.92769" y="-19.3181" width="75.3007" height="78.9955" filterUnits="userSpaceOnUse" color-interpolation-filters="sRGB">
<feFlood flood-opacity="0" result="BackgroundImageFix"/>
<feBlend mode="normal" in="SourceGraphic" in2="BackgroundImageFix" result="shape"/>
<feGaussianBlur stdDeviation="11.2583" result="effect1_foregroundBlur_170_367"/>
</filter>
<filter id="filter1_f_170_367" x="31.558" y="2.02118" width="24.0939" height="40.7816" filterUnits="userSpaceOnUse" color-interpolation-filters="sRGB">
<feFlood flood-opacity="0" result="BackgroundImageFix"/>
<feBlend mode="normal" in="SourceGraphic" in2="BackgroundImageFix" result="shape"/>
<feGaussianBlur stdDeviation="0.375276" result="effect1_foregroundBlur_170_367"/>
</filter>
<filter id="filter2_f_170_367" x="1.49333" y="2.7824" width="60.7018" height="58.1623" filterUnits="userSpaceOnUse" color-interpolation-filters="sRGB">
<feFlood flood-opacity="0" result="BackgroundImageFix"/>
<feBlend mode="normal" in="SourceGraphic" in2="BackgroundImageFix" result="shape"/>
<feGaussianBlur stdDeviation="10.5077" result="effect1_foregroundBlur_170_367"/>
</filter>
<filter id="filter3_f_170_367" x="13.9177" y="2.29052" width="21.0855" height="31.3355" filterUnits="userSpaceOnUse" color-interpolation-filters="sRGB">
<feFlood flood-opacity="0" result="BackgroundImageFix"/>
<feBlend mode="normal" in="SourceGraphic" in2="BackgroundImageFix" result="shape"/>
<feGaussianBlur stdDeviation="1.5011" result="effect1_foregroundBlur_170_367"/>
</filter>
<filter id="filter4_f_170_367" x="-14.0081" y="-0.746391" width="63.3287" height="63.7088" filterUnits="userSpaceOnUse" color-interpolation-filters="sRGB">
<feFlood flood-opacity="0" result="BackgroundImageFix"/>
<feBlend mode="normal" in="SourceGraphic" in2="BackgroundImageFix" result="shape"/>
<feGaussianBlur stdDeviation="7.50552" result="effect1_foregroundBlur_170_367"/>
</filter>
<filter id="filter5_f_170_367" x="1.90697" y="9.87719" width="28.1421" height="29.3865" filterUnits="userSpaceOnUse" color-interpolation-filters="sRGB">
<feFlood flood-opacity="0" result="BackgroundImageFix"/>
<feBlend mode="normal" in="SourceGraphic" in2="BackgroundImageFix" result="shape"/>
<feGaussianBlur stdDeviation="1.5011" result="effect1_foregroundBlur_170_367"/>
</filter>
<filter id="filter6_f_170_367" x="13.8774" y="20.8937" width="28.131" height="26.4579" filterUnits="userSpaceOnUse" color-interpolation-filters="sRGB">
<feFlood flood-opacity="0" result="BackgroundImageFix"/>
<feBlend mode="normal" in="SourceGraphic" in2="BackgroundImageFix" result="shape"/>
<feGaussianBlur stdDeviation="0.375276" result="effect1_foregroundBlur_170_367"/>
</filter>
<filter id="filter7_f_170_367" x="-34.6583" y="-30.7677" width="111.39" height="101.457" filterUnits="userSpaceOnUse" color-interpolation-filters="sRGB">
<feFlood flood-opacity="0" result="BackgroundImageFix"/>
<feBlend mode="normal" in="SourceGraphic" in2="BackgroundImageFix" result="shape"/>
<feGaussianBlur stdDeviation="12.0088" result="effect1_foregroundBlur_170_367"/>
</filter>
<filter id="filter8_f_170_367" x="-8.39088" y="-6.80763" width="36.4654" height="43.9544" filterUnits="userSpaceOnUse" color-interpolation-filters="sRGB">
<feFlood flood-opacity="0" result="BackgroundImageFix"/>
<feBlend mode="normal" in="SourceGraphic" in2="BackgroundImageFix" result="shape"/>
<feGaussianBlur stdDeviation="1.5011" result="effect1_foregroundBlur_170_367"/>
</filter>
<filter id="filter9_f_170_367" x="-3.32643" y="19.855" width="30.9126" height="30.5254" filterUnits="userSpaceOnUse" color-interpolation-filters="sRGB">
<feFlood flood-opacity="0" result="BackgroundImageFix"/>
<feBlend mode="normal" in="SourceGraphic" in2="BackgroundImageFix" result="shape"/>
<feGaussianBlur stdDeviation="1.5011" result="effect1_foregroundBlur_170_367"/>
</filter>
<filter id="filter10_f_170_367" x="4.82494" y="-4.92384" width="44.7583" height="22.6206" filterUnits="userSpaceOnUse" color-interpolation-filters="sRGB">
<feFlood flood-opacity="0" result="BackgroundImageFix"/>
<feBlend mode="normal" in="SourceGraphic" in2="BackgroundImageFix" result="shape"/>
<feGaussianBlur stdDeviation="1.5011" result="effect1_foregroundBlur_170_367"/>
</filter>
<filter id="filter11_f_170_367" x="10.9448" y="5.77728" width="39.3683" height="43.0721" filterUnits="userSpaceOnUse" color-interpolation-filters="sRGB">
<feFlood flood-opacity="0" result="BackgroundImageFix"/>
<feBlend mode="normal" in="SourceGraphic" in2="BackgroundImageFix" result="shape"/>
<feGaussianBlur stdDeviation="0.375276" result="effect1_foregroundBlur_170_367"/>
</filter>
<filter id="filter12_f_170_367" x="-6.92769" y="-19.3181" width="75.3007" height="78.9955" filterUnits="userSpaceOnUse" color-interpolation-filters="sRGB">
<feFlood flood-opacity="0" result="BackgroundImageFix"/>
<feBlend mode="normal" in="SourceGraphic" in2="BackgroundImageFix" result="shape"/>
<feGaussianBlur stdDeviation="11.2583" result="effect1_foregroundBlur_170_367"/>
</filter>
<filter id="filter13_f_170_367" x="31.558" y="2.02118" width="24.0939" height="40.7816" filterUnits="userSpaceOnUse" color-interpolation-filters="sRGB">
<feFlood flood-opacity="0" result="BackgroundImageFix"/>
<feBlend mode="normal" in="SourceGraphic" in2="BackgroundImageFix" result="shape"/>
<feGaussianBlur stdDeviation="0.375276" result="effect1_foregroundBlur_170_367"/>
</filter>
<filter id="filter14_f_170_367" x="1.49333" y="2.7824" width="60.7018" height="58.1623" filterUnits="userSpaceOnUse" color-interpolation-filters="sRGB">
<feFlood flood-opacity="0" result="BackgroundImageFix"/>
<feBlend mode="normal" in="SourceGraphic" in2="BackgroundImageFix" result="shape"/>
<feGaussianBlur stdDeviation="10.5077" result="effect1_foregroundBlur_170_367"/>
</filter>
<filter id="filter15_f_170_367" x="13.9177" y="2.29052" width="21.0855" height="31.3355" filterUnits="userSpaceOnUse" color-interpolation-filters="sRGB">
<feFlood flood-opacity="0" result="BackgroundImageFix"/>
<feBlend mode="normal" in="SourceGraphic" in2="BackgroundImageFix" result="shape"/>
<feGaussianBlur stdDeviation="1.5011" result="effect1_foregroundBlur_170_367"/>
</filter>
<filter id="filter16_f_170_367" x="-14.0081" y="-0.746391" width="63.3287" height="63.7088" filterUnits="userSpaceOnUse" color-interpolation-filters="sRGB">
<feFlood flood-opacity="0" result="BackgroundImageFix"/>
<feBlend mode="normal" in="SourceGraphic" in2="BackgroundImageFix" result="shape"/>
<feGaussianBlur stdDeviation="7.50552" result="effect1_foregroundBlur_170_367"/>
</filter>
<filter id="filter17_f_170_367" x="1.90697" y="9.87719" width="28.1421" height="29.3865" filterUnits="userSpaceOnUse" color-interpolation-filters="sRGB">
<feFlood flood-opacity="0" result="BackgroundImageFix"/>
<feBlend mode="normal" in="SourceGraphic" in2="BackgroundImageFix" result="shape"/>
<feGaussianBlur stdDeviation="1.5011" result="effect1_foregroundBlur_170_367"/>
</filter>
<filter id="filter18_f_170_367" x="13.8774" y="20.8937" width="28.131" height="26.4579" filterUnits="userSpaceOnUse" color-interpolation-filters="sRGB">
<feFlood flood-opacity="0" result="BackgroundImageFix"/>
<feBlend mode="normal" in="SourceGraphic" in2="BackgroundImageFix" result="shape"/>
<feGaussianBlur stdDeviation="0.375276" result="effect1_foregroundBlur_170_367"/>
</filter>
<filter id="filter19_f_170_367" x="-34.6583" y="-30.7677" width="111.39" height="101.457" filterUnits="userSpaceOnUse" color-interpolation-filters="sRGB">
<feFlood flood-opacity="0" result="BackgroundImageFix"/>
<feBlend mode="normal" in="SourceGraphic" in2="BackgroundImageFix" result="shape"/>
<feGaussianBlur stdDeviation="12.0088" result="effect1_foregroundBlur_170_367"/>
</filter>
<filter id="filter20_f_170_367" x="-8.39088" y="-6.80763" width="36.4654" height="43.9544" filterUnits="userSpaceOnUse" color-interpolation-filters="sRGB">
<feFlood flood-opacity="0" result="BackgroundImageFix"/>
<feBlend mode="normal" in="SourceGraphic" in2="BackgroundImageFix" result="shape"/>
<feGaussianBlur stdDeviation="1.5011" result="effect1_foregroundBlur_170_367"/>
</filter>
<filter id="filter21_f_170_367" x="-3.32643" y="19.855" width="30.9126" height="30.5254" filterUnits="userSpaceOnUse" color-interpolation-filters="sRGB">
<feFlood flood-opacity="0" result="BackgroundImageFix"/>
<feBlend mode="normal" in="SourceGraphic" in2="BackgroundImageFix" result="shape"/>
<feGaussianBlur stdDeviation="1.5011" result="effect1_foregroundBlur_170_367"/>
</filter>
<filter id="filter22_f_170_367" x="4.82494" y="-4.92384" width="44.7583" height="22.6206" filterUnits="userSpaceOnUse" color-interpolation-filters="sRGB">
<feFlood flood-opacity="0" result="BackgroundImageFix"/>
<feBlend mode="normal" in="SourceGraphic" in2="BackgroundImageFix" result="shape"/>
<feGaussianBlur stdDeviation="1.5011" result="effect1_foregroundBlur_170_367"/>
</filter>
<filter id="filter23_f_170_367" x="10.9448" y="5.77728" width="39.3683" height="43.0721" filterUnits="userSpaceOnUse" color-interpolation-filters="sRGB">
<feFlood flood-opacity="0" result="BackgroundImageFix"/>
<feBlend mode="normal" in="SourceGraphic" in2="BackgroundImageFix" result="shape"/>
<feGaussianBlur stdDeviation="0.375276" result="effect1_foregroundBlur_170_367"/>
</filter>
<linearGradient id="paint0_linear_170_367" x1="34.5319" y1="8.93776" x2="34.3154" y2="37.3521" gradientUnits="userSpaceOnUse">
<stop stop-color="#13497E"/>
<stop offset="0.640419" stop-color="#2B80D7"/>
</linearGradient>
<linearGradient id="paint1_linear_170_367" x1="43.6047" y1="11.0263" x2="43.6151" y2="40.5476" gradientUnits="userSpaceOnUse">
<stop stop-color="#E2C7FE"/>
<stop offset="0.450702" stop-color="#77B8FD"/>
</linearGradient>
<linearGradient id="paint2_linear_170_367" x1="31.3068" y1="18.6113" x2="16.3777" y2="44.778" gradientUnits="userSpaceOnUse">
<stop stop-color="#269EBF"/>
<stop offset="1" stop-color="#3EBADD"/>
</linearGradient>
<radialGradient id="paint3_radial_170_367" cx="0" cy="0" r="1" gradientUnits="userSpaceOnUse" gradientTransform="translate(33.4707 27.1788) rotate(140.856) scale(33.117 24.221)">
<stop offset="0.411461" stop-color="#FF7360"/>
<stop offset="1" stop-color="#630513"/>
</radialGradient>
<linearGradient id="paint4_linear_170_367" x1="28.0904" y1="25.2678" x2="15.7448" y2="43.6202" gradientUnits="userSpaceOnUse">
<stop stop-color="#33B6D2"/>
<stop offset="0.142991" stop-color="#5BD8FF"/>
<stop offset="1" stop-color="#228AA7"/>
</linearGradient>
<linearGradient id="paint5_linear_170_367" x1="32.3568" y1="27.2346" x2="21.8188" y2="45.4959" gradientUnits="userSpaceOnUse">
<stop offset="0.635417" stop-color="#68DEFF"/>
<stop offset="1" stop-color="#F3C8CB"/>
</linearGradient>
<linearGradient id="paint6_linear_170_367" x1="1.77132" y1="15.1542" x2="13.2696" y2="44.793" gradientUnits="userSpaceOnUse">
<stop offset="0.661495" stop-color="#88FFF8"/>
<stop offset="1" stop-color="#176781"/>
</linearGradient>
<linearGradient id="paint7_linear_170_367" x1="8.32627" y1="16.9619" x2="42.1853" y2="2.34001" gradientUnits="userSpaceOnUse">
<stop offset="0.731633" stop-color="#4D89FD"/>
<stop offset="1" stop-color="#033883"/>
</linearGradient>
<linearGradient id="paint8_linear_170_367" x1="29.4953" y1="5.28399" x2="12.5319" y2="8.26851" gradientUnits="userSpaceOnUse">
<stop stop-color="#D9D9D9"/>
<stop offset="0.658857" stop-color="#D9D9D9" stop-opacity="0"/>
</linearGradient>
<linearGradient id="paint9_linear_170_367" x1="37.4291" y1="9.10657" x2="20.1061" y2="0.726366" gradientUnits="userSpaceOnUse">
<stop stop-color="#D9D9D9"/>
<stop offset="1" stop-color="#D9D9D9" stop-opacity="0"/>
</linearGradient>
<linearGradient id="paint10_linear_170_367" x1="39.6503" y1="7.40477" x2="17.9516" y2="45.6888" gradientUnits="userSpaceOnUse">
<stop stop-color="#EFC7FE"/>
<stop offset="0.286458" stop-color="#2CBBF9"/>
<stop offset="0.65625" stop-color="#2CBBF9"/>
<stop offset="1" stop-color="#FDC8C8"/>
</linearGradient>
<linearGradient id="paint11_linear_170_367" x1="39.2677" y1="22.0051" x2="5.85312" y2="21.2857" gradientUnits="userSpaceOnUse">
<stop stop-color="#D9D9D9"/>
<stop offset="0.659264" stop-color="#D9D9D9" stop-opacity="0"/>
</linearGradient>
<linearGradient id="paint12_linear_170_367" x1="39.6493" y1="7.40429" x2="17.9506" y2="45.6883" gradientUnits="userSpaceOnUse">
<stop stop-color="#EFC7FE"/>
<stop offset="0.317708" stop-color="#2CBBF9"/>
<stop offset="0.661458" stop-color="#2CBBF9"/>
<stop offset="1" stop-color="#FDC8C8"/>
</linearGradient>
<linearGradient id="paint13_linear_170_367" x1="34.5319" y1="8.93776" x2="34.3154" y2="37.3521" gradientUnits="userSpaceOnUse">
<stop stop-color="#13497E"/>
<stop offset="0.640419" stop-color="#2B80D7"/>
</linearGradient>
<linearGradient id="paint14_linear_170_367" x1="43.6047" y1="11.0263" x2="43.6151" y2="40.5476" gradientUnits="userSpaceOnUse">
<stop stop-color="#E2C7FE"/>
<stop offset="0.450702" stop-color="#77B8FD"/>
</linearGradient>
<linearGradient id="paint15_linear_170_367" x1="31.3068" y1="18.6113" x2="16.3777" y2="44.778" gradientUnits="userSpaceOnUse">
<stop stop-color="#269EBF"/>
<stop offset="1" stop-color="#3EBADD"/>
</linearGradient>
<radialGradient id="paint16_radial_170_367" cx="0" cy="0" r="1" gradientUnits="userSpaceOnUse" gradientTransform="translate(33.4707 27.1788) rotate(140.856) scale(33.117 24.221)">
<stop offset="0.411461" stop-color="#FF7360"/>
<stop offset="1" stop-color="#630513"/>
</radialGradient>
<linearGradient id="paint17_linear_170_367" x1="28.0904" y1="25.2678" x2="15.7448" y2="43.6202" gradientUnits="userSpaceOnUse">
<stop stop-color="#33B6D2"/>
<stop offset="0.142991" stop-color="#5BD8FF"/>
<stop offset="1" stop-color="#228AA7"/>
</linearGradient>
<linearGradient id="paint18_linear_170_367" x1="32.3568" y1="27.2346" x2="21.8188" y2="45.4959" gradientUnits="userSpaceOnUse">
<stop offset="0.635417" stop-color="#68DEFF"/>
<stop offset="1" stop-color="#F3C8CB"/>
</linearGradient>
<linearGradient id="paint19_linear_170_367" x1="1.77132" y1="15.1542" x2="13.2696" y2="44.793" gradientUnits="userSpaceOnUse">
<stop offset="0.661495" stop-color="#88FFF8"/>
<stop offset="1" stop-color="#176781"/>
</linearGradient>
<linearGradient id="paint20_linear_170_367" x1="8.32627" y1="16.9619" x2="42.1853" y2="2.34001" gradientUnits="userSpaceOnUse">
<stop offset="0.731633" stop-color="#4D89FD"/>
<stop offset="1" stop-color="#033883"/>
</linearGradient>
<linearGradient id="paint21_linear_170_367" x1="29.4953" y1="5.28399" x2="12.5319" y2="8.26851" gradientUnits="userSpaceOnUse">
<stop stop-color="#D9D9D9"/>
<stop offset="0.658857" stop-color="#D9D9D9" stop-opacity="0"/>
</linearGradient>
<linearGradient id="paint22_linear_170_367" x1="37.4291" y1="9.10657" x2="20.1061" y2="0.726366" gradientUnits="userSpaceOnUse">
<stop stop-color="#D9D9D9"/>
<stop offset="1" stop-color="#D9D9D9" stop-opacity="0"/>
</linearGradient>
<linearGradient id="paint23_linear_170_367" x1="39.6503" y1="7.40477" x2="17.9516" y2="45.6888" gradientUnits="userSpaceOnUse">
<stop stop-color="#EFC7FE"/>
<stop offset="0.286458" stop-color="#2CBBF9"/>
<stop offset="0.65625" stop-color="#2CBBF9"/>
<stop offset="1" stop-color="#FDC8C8"/>
</linearGradient>
<linearGradient id="paint24_linear_170_367" x1="39.2677" y1="22.0051" x2="5.85312" y2="21.2857" gradientUnits="userSpaceOnUse">
<stop stop-color="#D9D9D9"/>
<stop offset="0.659264" stop-color="#D9D9D9" stop-opacity="0"/>
</linearGradient>
<linearGradient id="paint25_linear_170_367" x1="39.6493" y1="7.40429" x2="17.9506" y2="45.6883" gradientUnits="userSpaceOnUse">
<stop stop-color="#EFC7FE"/>
<stop offset="0.317708" stop-color="#2CBBF9"/>
<stop offset="0.661458" stop-color="#2CBBF9"/>
<stop offset="1" stop-color="#FDC8C8"/>
</linearGradient>
</defs>
</svg>
